# xmcd CD database file
#
# Track frame offsets:
#	150
#	18285
#	33182
#	46145
#	70637
#	84382
#	109280
#	122545
#	147520
#	164802
#	178392
#	195820
#
# Disc length: 2816 seconds
#
# Revision: 0
# Processed by: cddbd v1.5.1PL2 Copyright (c) Steve Scherf et al.
# Submitted via: CDex 1.51
#
DISCID=9c0afe0c
DTITLE=Ytre Suløens Jass-ensemble - A Stone For Bessie Smith
DYEAR=1987
DGENRE=Jazz
TTITLE0=A Stone For Bessie Smith's grave
TTITLE1=Dark town strutter's ball
TTITLE2=Just a gigolo
TTITLE3=St. Louis blues
TTITLE4=It's a sin to tell a lie
TTITLE5=His eye is on the sparrow
TTITLE6=Gimme a pigfoot
TTITLE7=Moon over Bourbon Street
TTITLE8=Do you know what it means to miss New Orleans
TTITLE9=New Orleans hop scop blues
TTITLE10=Need a little sugar in my bowl
TTITLE11=I must go, you must go
EXTD=YEAR: 1987
EXTT0=
EXTT1=
EXTT2=
EXTT3=
EXTT4=
EXTT5=
EXTT6=
EXTT7=
EXTT8=
EXTT9=
EXTT10=
EXTT11=
PLAYORDER=
